External Loads File
version=1
nRows=31
nColumns=13
Range=5.000000e-03-10 seconds
endheader
time 	forceRightX 	forceRightY 	forceRightZ 	pointRightX 	pointRightY 	pointRightZ 	forceLeftX 	forceLeftY 	forceLeftZ 	pointLeftX 	pointLeftY 	pointLeftZ 		
0.005000 -12.379689 111.450738 -0.000000 0.309490 0.393326 -0.104871 11.013143 151.015286 -0.000000 0.024721 0.252716 -0.343273
0.010000 -12.280841 111.574297 -0.000000 0.309414 0.393519 -0.104859 11.334246 151.088543 -0.000000 0.024765 0.252569 -0.343284
0.015000 -12.197048 111.663590 -0.000000 0.309348 0.393740 -0.104858 11.631627 151.155495 -0.000000 0.024798 0.252417 -0.343266
0.020000 -12.147929 111.704509 -0.000000 0.309309 0.393929 -0.104838 11.870152 151.186865 -0.000000 0.024843 0.252260 -0.343280
0.025000 -12.442353 111.653408 -0.000000 0.309288 0.394169 -0.104741 11.627033 151.187189 -0.000000 0.024707 0.251199 -0.343376
0.030000 -12.571306 111.559915 -0.000000 0.309277 0.394358 -0.104695 11.593082 151.092311 -0.000000 0.024708 0.250857 -0.343347
0.035000 -12.695667 111.404613 -0.000000 0.309268 0.394525 -0.104676 11.544498 150.928097 -0.000000 0.024747 0.250633 -0.343315
0.040000 -12.809057 111.191954 -0.000000 0.309255 0.394722 -0.104657 11.477738 150.711332 -0.000000 0.024758 0.250447 -0.343283
0.045000 -12.930269 110.927163 -0.000000 0.309210 0.394899 -0.104661 11.383286 150.464022 -0.000000 0.024782 0.250193 -0.343294
0.050000 -13.049136 110.620388 -0.000000 0.309142 0.395126 -0.104682 11.329407 150.212380 -0.000000 0.024812 0.250001 -0.343300
0.055000 -13.181612 110.283104 -0.000000 0.309071 0.395353 -0.104665 11.349140 149.990518 -0.000000 0.024838 0.249789 -0.343308
0.060000 -13.296690 109.938596 -0.000000 0.309014 0.395566 -0.104710 11.504967 149.821340 -0.000000 0.024878 0.249641 -0.343242
0.065000 -13.423372 109.605135 -0.000000 0.308973 0.395833 -0.104730 11.726400 149.717137 -0.000000 0.024904 0.249477 -0.343240
0.070000 -13.489336 109.308703 -0.000000 0.308952 0.396012 -0.104763 12.027766 149.658797 -0.000000 0.024947 0.249288 -0.343246
0.075000 -13.493542 109.056524 -0.000000 0.308911 0.396202 -0.104761 12.318070 149.622866 -0.000000 0.025006 0.249097 -0.343234
0.080000 -13.409312 108.850078 -0.000000 0.308874 0.396386 -0.104742 12.587070 149.585729 -0.000000 0.025062 0.248927 -0.343203
0.085000 -13.271773 108.683969 -0.000000 0.308792 0.396582 -0.104681 12.776552 149.536439 -0.000000 0.025117 0.248734 -0.343185
0.090000 -13.066409 108.563966 -0.000000 0.308726 0.396779 -0.104657 12.904475 149.457399 -0.000000 0.025187 0.248543 -0.343200
0.095000 -12.834729 108.484817 -0.000000 0.308645 0.396978 -0.104640 12.934028 149.332180 -0.000000 0.025261 0.248286 -0.343206
0.100000 -12.611306 108.430409 -0.000000 0.308578 0.397228 -0.104649 12.882796 149.142442 -0.000000 0.025327 0.248032 -0.343214
0.105000 -12.446578 108.376086 -0.000000 0.308496 0.397501 -0.104691 12.771061 148.883772 -0.000000 0.025405 0.247816 -0.343233
0.110000 -12.362774 108.302521 -0.000000 0.308412 0.397739 -0.104724 12.631459 148.569950 -0.000000 0.025480 0.247605 -0.343249
0.115000 -12.342907 108.197805 -0.000000 0.308332 0.397959 -0.104740 12.500367 148.224770 -0.000000 0.025553 0.247442 -0.343260
0.120000 -12.371715 108.048194 -0.000000 0.308258 0.398141 -0.104731 12.391195 147.873390 -0.000000 0.025633 0.247276 -0.343258
0.125000 -12.442538 107.840962 -0.000000 0.308200 0.398327 -0.104735 12.313978 147.539325 -0.000000 0.025711 0.247070 -0.343214
0.130000 -12.499375 107.581771 -0.000000 0.308135 0.398480 -0.104707 12.338392 147.235277 -0.000000 0.025794 0.246904 -0.343177
0.135000 -12.533964 107.284946 -0.000000 0.308083 0.398629 -0.104666 12.439291 146.968213 -0.000000 0.025871 0.246730 -0.343172
0.140000 -12.562867 106.966724 -0.000000 0.308031 0.398858 -0.104633 12.547010 146.743036 -0.000000 0.025945 0.246517 -0.343162
0.145000 -12.513172 106.647862 -0.000000 0.307985 0.399003 -0.104610 12.743206 146.557128 -0.000000 0.026025 0.246343 -0.343166
0.150000 -12.433591 106.321691 -0.000000 0.307960 0.399179 -0.104637 12.980515 146.414623 -0.000000 0.026068 0.246202 -0.343180
0.155000 -12.368821 105.970916 -0.000000 0.307930 0.399356 -0.104654 13.228311 146.303631 -0.000000 0.026125 0.246084 -0.343184
